<svg xmlns="http://www.w3.org/2000/svg" viewBox="0 0 64 64"><g id="_06-Earth" data-name="06-Earth"><path d="M55.51,19H52.64a7.669,7.669,0,0,1,1.3-2.4A23.549,23.549,0,0,1,55.51,19Z" style="fill:#4989f4"/><path d="M59,32c0,.33-.01.67-.02,1H36a2.006,2.006,0,0,0-2,2,2.015,2.015,0,0,0,2,2h5.5A1.5,1.5,0,0,1,43,38.5,1.5,1.5,0,0,0,44.5,40h1A3.5,3.5,0,0,1,49,43.5,3.518,3.518,0,0,0,52.45,47,5.492,5.492,0,0,0,51,50.71v.05A25.974,25.974,0,0,1,39,57.3V53.5A2.5,2.5,0,0,0,36.5,51h-5A2.492,2.492,0,0,1,29,48.5,2.5,2.5,0,0,0,26.5,46H16.99a.615.615,0,0,0,.01-.14A7.773,7.773,0,0,0,14.33,40H22a2.015,2.015,0,0,0,2-2,2.006,2.006,0,0,0-2-2H20a3,3,0,0,1,0-6h7a2.015,2.015,0,0,0,2-2,2.006,2.006,0,0,0-2-2H7.7a25.688,25.688,0,0,1,1.29-3.98,3.977,3.977,0,0,1,.21,1.27,1.8,1.8,0,0,0,3.6,0c0-2.26,1.83-3.53,3.07-5.29H23a2.006,2.006,0,0,0,2-2,2.015,2.015,0,0,1,2-2h4a2.006,2.006,0,0,0,2-2,2.015,2.015,0,0,0-2-2H19.16A25.969,25.969,0,0,1,42.09,7.64,8.246,8.246,0,0,0,42,8.86c0,4.81,4.28,6.61,5.36,10.14H38a2.006,2.006,0,0,0-2,2,2.015,2.015,0,0,0,2,2h7a3,3,0,0,1,3,3,3,3,0,0,0,3,3h7.83A27.007,27.007,0,0,1,59,32Z" style="fill:#4989f4"/><path d="M36,33H58.98A25.882,25.882,0,0,1,55.4,45.21,5.983,5.983,0,0,0,52.45,47,3.518,3.518,0,0,1,49,43.5,3.5,3.5,0,0,0,45.5,40h-1A1.5,1.5,0,0,1,43,38.5,1.5,1.5,0,0,0,41.5,37H36a2.015,2.015,0,0,1-2-2A2.006,2.006,0,0,1,36,33Z" style="fill:#01c25a"/><path d="M58.83,29H51a3,3,0,0,1-3-3,3,3,0,0,0-3-3H38a2.015,2.015,0,0,1-2-2,2.006,2.006,0,0,1,2-2h9.36a5.7,5.7,0,0,1,.24,1.64,2.4,2.4,0,0,0,4.8,0A5.7,5.7,0,0,1,52.64,19h2.87A25.714,25.714,0,0,1,58.83,29Z" style="fill:#01c25a"/><path d="M39,53.5v3.8a26.024,26.024,0,0,1-23.87-6.41A7.965,7.965,0,0,0,16.99,46H26.5A2.5,2.5,0,0,1,29,48.5,2.492,2.492,0,0,0,31.5,51h5A2.5,2.5,0,0,1,39,53.5Z" style="fill:#01c25a"/><path d="M32.41,10.59A1.955,1.955,0,0,1,33,12a2.006,2.006,0,0,1-2,2H27a2.015,2.015,0,0,0-2,2,2.006,2.006,0,0,1-2,2H15.87a5.4,5.4,0,0,0,.45-5.93A23.171,23.171,0,0,1,19.16,10H31A1.955,1.955,0,0,1,32.41,10.59Z" style="fill:#01c25a"/><path d="M27,26a2.006,2.006,0,0,1,2,2,2.015,2.015,0,0,1-2,2H20a3,3,0,0,0,0,6h2a2.006,2.006,0,0,1,2,2,2.015,2.015,0,0,1-2,2H14.33A8.052,8.052,0,0,0,9,38a7.594,7.594,0,0,0-1.27.1A25.956,25.956,0,0,1,7.7,26Z" style="fill:#01c25a"/><path d="M19.514,40H14.33A7.773,7.773,0,0,1,17,45.86a.615.615,0,0,1-.01.14h9.16A26.121,26.121,0,0,1,19.514,40Z" style="fill:#335fab"/><path d="M14,24a26.217,26.217,0,0,1,.327-4.116A5.214,5.214,0,0,0,12.8,23.29a1.8,1.8,0,0,1-3.6,0,3.977,3.977,0,0,0-.21-1.27A25.688,25.688,0,0,0,7.7,26h6.384C14.034,25.339,14,24.674,14,24Z" style="fill:#335fab"/><path d="M40,50a25.89,25.89,0,0,1-11.237-2.548A2.481,2.481,0,0,1,29,48.5,2.492,2.492,0,0,0,31.5,51h5A2.5,2.5,0,0,1,39,53.5v3.8a25.974,25.974,0,0,0,12-6.54v-.05A5.492,5.492,0,0,1,52.45,47c-.092,0-.178-.022-.268-.03A25.875,25.875,0,0,1,40,50Z" style="fill:#335fab"/><path d="M36.5,51h-5A2.492,2.492,0,0,1,29,48.5a2.481,2.481,0,0,0-.237-1.048A25.945,25.945,0,0,1,26.15,46H16.99a7.965,7.965,0,0,1-1.86,4.89A26.024,26.024,0,0,0,39,57.3V53.5A2.5,2.5,0,0,0,36.5,51Z" style="fill:#019144"/><path d="M16.32,12.07a5.787,5.787,0,0,1,.278.591c.229-.471.476-.932.732-1.387C16.988,11.533,16.646,11.792,16.32,12.07Z" style="fill:#01c25a"/><path d="M14.084,26H7.7a25.956,25.956,0,0,0,.03,12.1A7.594,7.594,0,0,1,9,38a8.052,8.052,0,0,1,5.33,2h5.184A25.865,25.865,0,0,1,14.084,26Z" style="fill:#019144"/><path d="M51,50.71A5.492,5.492,0,0,1,52.45,47a3.436,3.436,0,0,1-1.325-.281A5.933,5.933,0,0,0,49.45,48,5.492,5.492,0,0,0,48,51.71v.05a5.186,5.186,0,0,0,.186,1.336A25.9,25.9,0,0,0,51,50.76Z" style="fill:#284d8f"/><path d="M40,10.86c0,3.82,2.7,5.743,4.347,8.14H47.36C46.28,15.47,42,13.67,42,8.86a8.246,8.246,0,0,1,.09-1.22c-.391-.146-.8-.261-1.2-.388a7.725,7.725,0,0,0-.8,2.388A8.246,8.246,0,0,0,40,10.86Z" style="fill:#335fab"/><path d="M45.644,23.073a2.375,2.375,0,0,0,2.167,1.908A2.986,2.986,0,0,0,45.644,23.073Z" style="fill:#335fab"/><path d="M51.125,46.719A3.436,3.436,0,0,0,52.45,47a5.874,5.874,0,0,1,1.147-.974,5.7,5.7,0,0,0-2.472.693Z" style="fill:#017336"/><path d="M47.6,20.64A5.7,5.7,0,0,0,47.36,19H44.347a7.248,7.248,0,0,1,1.013,2,5.7,5.7,0,0,1,.24,1.64,2.381,2.381,0,0,0,.044.433,2.986,2.986,0,0,1,2.167,1.908c.064,0,.124.019.189.019a2.379,2.379,0,0,0,2.367-2.036A2.467,2.467,0,0,1,50,23,2.38,2.38,0,0,1,47.6,20.64Z" style="fill:#019144"/><path d="M9.2,23.29a3.977,3.977,0,0,0-.21-1.27A25.688,25.688,0,0,0,7.7,26h2.931a1.61,1.61,0,0,0,.169-.71c0-.108.023-.2.031-.306A1.748,1.748,0,0,1,9.2,23.29Z" style="fill:#284d8f"/><path d="M9,27a1.809,1.809,0,0,0,1.631-1H7.7c-.03.123-.05.25-.078.375A1.828,1.828,0,0,0,9,27Z" style="fill:#017336"/><path d="M57,45a5.865,5.865,0,0,1,6,5.71c0,4-4.2,5.15-4.2,8.58a1.8,1.8,0,0,1-3.6,0c0-3.42-4.16-4.57-4.2-8.53v-.05A5.492,5.492,0,0,1,52.45,47a5.983,5.983,0,0,1,2.95-1.79A6.054,6.054,0,0,1,57,45Zm2,6a2,2,0,1,0-2,2A2.006,2.006,0,0,0,59,51Z" style="fill:#e63b47"/><circle cx="57" cy="51" r="2" style="fill:#96272e"/><path d="M50,1a7.93,7.93,0,0,1,8,7.86c0,3.6-2.4,5.52-4.06,7.74a7.669,7.669,0,0,0-1.3,2.4,5.7,5.7,0,0,0-.24,1.64,2.4,2.4,0,0,1-4.8,0A5.7,5.7,0,0,0,47.36,19C46.28,15.47,42,13.67,42,8.86a8.246,8.246,0,0,1,.09-1.22A7.967,7.967,0,0,1,50,1Zm3,8a3,3,0,1,0-3,3A3,3,0,0,0,53,9Z" style="fill:#e63b47"/><circle cx="50" cy="9" r="3" style="fill:#96272e"/><path d="M17,45.86a.615.615,0,0,1-.01.14,7.965,7.965,0,0,1-1.86,4.89c-1.62,2.15-3.73,3.86-3.73,6.75a2.4,2.4,0,0,1-4.8,0C6.6,52.93,1,51.36,1,45.86A7.9,7.9,0,0,1,7.73,38.1,7.594,7.594,0,0,1,9,38a8.052,8.052,0,0,1,5.33,2A7.773,7.773,0,0,1,17,45.86ZM12,46a3,3,0,1,0-3,3A3,3,0,0,0,12,46Z" style="fill:#e63b47"/><path d="M16.32,12.07A5.4,5.4,0,0,1,15.87,18c-1.24,1.76-3.07,3.03-3.07,5.29a1.8,1.8,0,0,1-3.6,0,3.977,3.977,0,0,0-.21-1.27C8.15,19.5,5,18.17,5,14.71A5.865,5.865,0,0,1,11,9,6.051,6.051,0,0,1,16.32,12.07ZM13,15a2,2,0,1,0-2,2A2.006,2.006,0,0,0,13,15Z" style="fill:#e63b47"/><circle cx="11" cy="15" r="2" style="fill:#96272e"/><circle cx="9" cy="46" r="3" style="fill:#96272e"/><path d="M11,12a3,3,0,1,0,3,3A3,3,0,0,0,11,12Zm0,5a2,2,0,1,1,2-2A2.006,2.006,0,0,1,11,17Z" style="fill:#b32e37"/><path d="M57,48a3,3,0,1,0,3,3A3,3,0,0,0,57,48Zm0,5a2,2,0,1,1,2-2A2.006,2.006,0,0,1,57,53Z" style="fill:#b32e37"/><path d="M9,42a4,4,0,1,0,4,4A4,4,0,0,0,9,42Zm0,7a3,3,0,1,1,3-3A3,3,0,0,1,9,49Z" style="fill:#b32e37"/><path d="M50,5a4,4,0,1,0,4,4A4,4,0,0,0,50,5Zm0,7a3,3,0,1,1,3-3A3,3,0,0,1,50,12Z" style="fill:#b32e37"/></g></svg>